<svg xmlns="http://www.w3.org/2000/svg" xmlns:xlink="http://www.w3.org/1999/xlink" width="2000" zoomAndPan="magnify" viewBox="0 0 1500 1499.999933" height="2000" preserveAspectRatio="xMidYMid meet" version="1.0"><defs><g/><clipPath id="abbf438754"><path d="M 107.328125 64.65625 L 1392.828125 64.65625 L 1392.828125 1350.15625 L 107.328125 1350.15625 Z M 107.328125 64.65625 " clip-rule="nonzero"/></clipPath></defs><g clip-path="url(#abbf438754)"><path fill="#0cc0df" d="M 1392.828125 707.40625 C 1392.828125 734.375 1329.902344 757.347656 1326.90625 783.316406 C 1322.910156 810.285156 1378.34375 848.738281 1371.351562 873.710938 C 1364.359375 899.679688 1297.4375 905.175781 1287.449219 929.644531 C 1277.460938 954.117188 1320.410156 1005.558594 1306.429688 1028.53125 C 1293.445312 1051.503906 1227.519531 1040.015625 1211.039062 1060.992188 C 1195.058594 1082.46875 1223.523438 1143.394531 1204.046875 1161.375 C 1185.070312 1180.351562 1125.140625 1152.386719 1103.664062 1168.367188 C 1082.191406 1184.347656 1094.675781 1250.769531 1071.203125 1263.757812 C 1048.230469 1276.742188 996.789062 1233.789062 972.316406 1244.777344 C 947.847656 1254.765625 942.351562 1321.6875 916.382812 1328.679688 C 890.914062 1335.671875 852.457031 1280.238281 825.988281 1284.230469 C 800.019531 1287.230469 777.046875 1350.15625 750.078125 1350.15625 C 723.109375 1350.15625 700.136719 1287.230469 674.167969 1284.230469 C 647.199219 1280.238281 608.742188 1335.671875 583.773438 1328.679688 C 557.800781 1321.6875 552.308594 1254.765625 527.835938 1244.777344 C 503.367188 1234.789062 451.925781 1277.738281 428.953125 1263.757812 C 405.980469 1250.769531 417.464844 1184.847656 396.488281 1168.367188 C 375.015625 1152.386719 314.085938 1180.851562 296.105469 1161.375 C 277.128906 1142.398438 305.097656 1082.46875 289.117188 1060.992188 C 273.132812 1039.519531 206.710938 1052.003906 193.726562 1028.53125 C 180.742188 1005.058594 223.691406 954.117188 212.703125 929.644531 C 202.714844 905.175781 135.792969 899.679688 128.800781 873.710938 C 121.8125 848.242188 177.246094 809.785156 173.25 783.316406 C 170.253906 757.347656 107.328125 734.375 107.328125 707.40625 C 107.328125 680.4375 170.253906 657.464844 173.25 631.492188 C 177.246094 604.523438 121.8125 566.070312 128.800781 541.097656 C 135.792969 515.128906 202.714844 509.636719 212.703125 485.164062 C 222.691406 460.691406 179.742188 409.253906 193.726562 386.28125 C 206.710938 363.308594 272.632812 374.792969 289.117188 353.816406 C 305.097656 332.34375 276.628906 271.414062 296.105469 253.433594 C 315.085938 234.457031 375.015625 262.425781 396.488281 246.441406 C 417.964844 230.460938 405.480469 164.039062 428.953125 151.054688 C 452.425781 138.070312 503.367188 181.019531 527.835938 170.03125 C 552.308594 160.042969 557.800781 93.121094 583.773438 86.128906 C 609.242188 79.136719 647.695312 134.574219 674.167969 130.578125 C 700.136719 127.582031 723.109375 64.65625 750.078125 64.65625 C 777.046875 64.65625 800.019531 127.582031 825.988281 130.578125 C 852.957031 134.574219 891.414062 79.136719 916.382812 86.128906 C 942.351562 93.121094 947.847656 160.042969 972.316406 170.03125 C 996.789062 180.019531 1048.230469 137.070312 1071.203125 151.054688 C 1094.175781 164.039062 1082.691406 229.960938 1103.664062 246.441406 C 1125.140625 262.425781 1186.070312 233.957031 1204.046875 253.433594 C 1223.027344 272.414062 1195.058594 332.34375 1211.039062 353.816406 C 1227.019531 375.292969 1293.445312 362.808594 1306.429688 386.28125 C 1319.414062 409.253906 1276.464844 460.691406 1287.449219 485.164062 C 1297.4375 509.636719 1364.359375 515.128906 1371.351562 541.097656 C 1378.34375 566.570312 1322.910156 605.023438 1326.90625 631.492188 C 1329.902344 657.464844 1392.828125 680.4375 1392.828125 707.40625 Z M 1392.828125 707.40625 " fill-opacity="1" fill-rule="nonzero"/></g><path fill="#ffffff" d="M 1299.4375 707.40625 C 1299.4375 716.410156 1299.214844 725.414062 1298.773438 734.410156 C 1298.332031 743.40625 1297.667969 752.386719 1296.785156 761.351562 C 1295.902344 770.3125 1294.800781 779.25 1293.480469 788.160156 C 1292.15625 797.070312 1290.617188 805.941406 1288.863281 814.773438 C 1287.105469 823.609375 1285.132812 832.394531 1282.941406 841.132812 C 1280.753906 849.867188 1278.351562 858.546875 1275.738281 867.164062 C 1273.125 875.785156 1270.300781 884.335938 1267.265625 892.816406 C 1264.230469 901.296875 1260.988281 909.695312 1257.542969 918.019531 C 1254.097656 926.339844 1250.445312 934.570312 1246.597656 942.714844 C 1242.746094 950.855469 1238.695312 958.898438 1234.449219 966.84375 C 1230.203125 974.785156 1225.765625 982.621094 1221.136719 990.34375 C 1216.503906 998.070312 1211.6875 1005.679688 1206.683594 1013.167969 C 1201.679688 1020.65625 1196.496094 1028.019531 1191.128906 1035.253906 C 1185.765625 1042.488281 1180.226562 1049.585938 1174.511719 1056.546875 C 1168.796875 1063.511719 1162.914062 1070.328125 1156.867188 1077.003906 C 1150.816406 1083.675781 1144.609375 1090.199219 1138.242188 1096.566406 C 1131.871094 1102.9375 1125.351562 1109.144531 1118.675781 1115.191406 C 1112.003906 1121.242188 1105.183594 1127.125 1098.222656 1132.835938 C 1091.257812 1138.550781 1084.160156 1144.089844 1076.925781 1149.457031 C 1069.691406 1154.820312 1062.328125 1160.007812 1054.839844 1165.011719 C 1047.351562 1170.015625 1039.746094 1174.832031 1032.019531 1179.460938 C 1024.292969 1184.09375 1016.457031 1188.53125 1008.515625 1192.777344 C 1000.570312 1197.023438 992.527344 1201.070312 984.386719 1204.921875 C 976.246094 1208.773438 968.011719 1212.421875 959.691406 1215.871094 C 951.371094 1219.316406 942.96875 1222.558594 934.488281 1225.589844 C 926.007812 1228.625 917.457031 1231.449219 908.839844 1234.066406 C 900.21875 1236.679688 891.542969 1239.082031 882.804688 1241.269531 C 874.066406 1243.457031 865.28125 1245.429688 856.449219 1247.1875 C 847.613281 1248.945312 838.742188 1250.484375 829.832031 1251.804688 C 820.921875 1253.128906 811.988281 1254.230469 803.023438 1255.113281 C 794.058594 1255.996094 785.078125 1256.65625 776.082031 1257.101562 C 767.085938 1257.542969 758.085938 1257.761719 749.078125 1257.761719 C 740.070312 1257.761719 731.070312 1257.542969 722.074219 1257.101562 C 713.078125 1256.65625 704.097656 1255.996094 695.132812 1255.113281 C 686.171875 1254.230469 677.234375 1253.128906 668.324219 1251.804688 C 659.414062 1250.484375 650.542969 1248.945312 641.710938 1247.1875 C 632.875 1245.429688 624.089844 1243.457031 615.351562 1241.269531 C 606.617188 1239.082031 597.9375 1236.679688 589.316406 1234.066406 C 580.699219 1231.449219 572.148438 1228.625 563.667969 1225.589844 C 555.1875 1222.558594 546.789062 1219.316406 538.464844 1215.871094 C 530.144531 1212.421875 521.914062 1208.773438 513.769531 1204.921875 C 505.628906 1201.070312 497.585938 1197.023438 489.640625 1192.777344 C 481.699219 1188.53125 473.863281 1184.09375 466.136719 1179.460938 C 458.414062 1174.832031 450.804688 1170.015625 443.316406 1165.011719 C 435.828125 1160.007812 428.464844 1154.820312 421.230469 1149.457031 C 413.996094 1144.089844 406.898438 1138.550781 399.933594 1132.835938 C 392.972656 1127.125 386.15625 1121.242188 379.480469 1115.191406 C 372.808594 1109.144531 366.285156 1102.9375 359.917969 1096.566406 C 353.546875 1090.199219 347.339844 1083.675781 341.289062 1077.003906 C 335.242188 1070.328125 329.359375 1063.511719 323.644531 1056.546875 C 317.933594 1049.585938 312.394531 1042.488281 307.027344 1035.253906 C 301.660156 1028.019531 296.476562 1020.65625 291.472656 1013.167969 C 286.46875 1005.679688 281.652344 998.070312 277.019531 990.34375 C 272.390625 982.621094 267.953125 974.785156 263.707031 966.84375 C 259.460938 958.898438 255.414062 950.855469 251.5625 942.714844 C 247.710938 934.570312 244.0625 926.339844 240.613281 918.019531 C 237.167969 909.695312 233.925781 901.296875 230.894531 892.816406 C 227.859375 884.335938 225.035156 875.785156 222.417969 867.164062 C 219.804688 858.546875 217.402344 849.867188 215.214844 841.132812 C 213.027344 832.394531 211.054688 823.609375 209.296875 814.773438 C 207.539062 805.941406 206 797.070312 204.679688 788.160156 C 203.355469 779.25 202.253906 770.3125 201.371094 761.351562 C 200.488281 752.386719 199.824219 743.40625 199.382812 734.410156 C 198.941406 725.414062 198.722656 716.410156 198.722656 707.40625 C 198.722656 698.398438 198.941406 689.398438 199.382812 680.398438 C 199.824219 671.402344 200.488281 662.425781 201.371094 653.460938 C 202.253906 644.496094 203.355469 635.558594 204.679688 626.652344 C 206 617.742188 207.539062 608.871094 209.296875 600.035156 C 211.054688 591.203125 213.027344 582.417969 215.214844 573.679688 C 217.402344 564.941406 219.804688 556.265625 222.417969 547.644531 C 225.035156 539.027344 227.859375 530.476562 230.894531 521.996094 C 233.925781 513.515625 237.167969 505.113281 240.613281 496.792969 C 244.0625 488.472656 247.710938 480.238281 251.5625 472.097656 C 255.414062 463.953125 259.460938 455.910156 263.707031 447.96875 C 267.953125 440.023438 272.390625 432.191406 277.019531 424.464844 C 281.652344 416.738281 286.46875 409.132812 291.472656 401.644531 C 296.476562 394.152344 301.660156 386.792969 307.027344 379.558594 C 312.394531 372.324219 317.933594 365.222656 323.644531 358.261719 C 329.359375 351.300781 335.242188 344.480469 341.289062 337.808594 C 347.339844 331.132812 353.546875 324.613281 359.917969 318.242188 C 366.285156 311.875 372.808594 305.664062 379.480469 299.617188 C 386.15625 293.566406 392.972656 287.6875 399.933594 281.972656 C 406.898438 276.257812 413.996094 270.71875 421.230469 265.355469 C 428.464844 259.988281 435.828125 254.804688 443.316406 249.800781 C 450.804688 244.796875 458.414062 239.976562 466.136719 235.347656 C 473.863281 230.71875 481.699219 226.277344 489.640625 222.03125 C 497.585938 217.785156 505.628906 213.738281 513.769531 209.886719 C 521.914062 206.035156 530.144531 202.386719 538.464844 198.941406 C 546.789062 195.492188 555.1875 192.253906 563.667969 189.21875 C 572.148438 186.183594 580.699219 183.359375 589.316406 180.746094 C 597.9375 178.132812 606.617188 175.730469 615.351562 173.539062 C 624.089844 171.351562 632.875 169.378906 641.710938 167.621094 C 650.542969 165.863281 659.414062 164.324219 668.324219 163.003906 C 677.234375 161.683594 686.171875 160.582031 695.132812 159.699219 C 704.097656 158.816406 713.078125 158.152344 722.074219 157.710938 C 731.070312 157.269531 740.070312 157.046875 749.078125 157.046875 C 758.085938 157.046875 767.085938 157.269531 776.082031 157.710938 C 785.078125 158.152344 794.058594 158.816406 803.023438 159.699219 C 811.988281 160.582031 820.921875 161.683594 829.832031 163.003906 C 838.742188 164.324219 847.613281 165.863281 856.449219 167.621094 C 865.28125 169.378906 874.066406 171.351562 882.804688 173.539062 C 891.542969 175.730469 900.21875 178.132812 908.839844 180.746094 C 917.457031 183.359375 926.007812 186.183594 934.488281 189.21875 C 942.96875 192.253906 951.371094 195.492188 959.691406 198.941406 C 968.011719 202.386719 976.246094 206.035156 984.386719 209.886719 C 992.527344 213.738281 1000.570312 217.785156 1008.515625 222.03125 C 1016.457031 226.277344 1024.292969 230.71875 1032.019531 235.347656 C 1039.746094 239.976562 1047.351562 244.796875 1054.839844 249.800781 C 1062.328125 254.804688 1069.691406 259.988281 1076.925781 265.355469 C 1084.160156 270.71875 1091.257812 276.257812 1098.222656 281.972656 C 1105.183594 287.6875 1112.003906 293.566406 1118.675781 299.617188 C 1125.351562 305.664062 1131.871094 311.875 1138.242188 318.242188 C 1144.609375 324.613281 1150.816406 331.132812 1156.867188 337.808594 C 1162.914062 344.480469 1168.796875 351.300781 1174.511719 358.261719 C 1180.226562 365.222656 1185.765625 372.324219 1191.128906 379.558594 C 1196.496094 386.792969 1201.679688 394.152344 1206.683594 401.644531 C 1211.6875 409.132812 1216.503906 416.738281 1221.136719 424.464844 C 1225.765625 432.191406 1230.203125 440.023438 1234.449219 447.96875 C 1238.695312 455.910156 1242.746094 463.953125 1246.597656 472.097656 C 1250.445312 480.238281 1254.097656 488.472656 1257.542969 496.792969 C 1260.988281 505.113281 1264.230469 513.515625 1267.265625 521.996094 C 1270.300781 530.476562 1273.125 539.027344 1275.738281 547.644531 C 1278.351562 556.265625 1280.753906 564.941406 1282.941406 573.679688 C 1285.132812 582.417969 1287.105469 591.203125 1288.863281 600.035156 C 1290.617188 608.871094 1292.15625 617.742188 1293.480469 626.652344 C 1294.800781 635.558594 1295.902344 644.496094 1296.785156 653.460938 C 1297.667969 662.425781 1298.332031 671.402344 1298.773438 680.398438 C 1299.214844 689.398438 1299.4375 698.398438 1299.4375 707.40625 Z M 1299.4375 707.40625 " fill-opacity="1" fill-rule="nonzero"/><path fill="#58595b" d="M 1278.960938 707.40625 C 1278.960938 716.078125 1278.746094 724.742188 1278.320312 733.40625 C 1277.898438 742.066406 1277.257812 750.710938 1276.410156 759.34375 C 1275.558594 767.972656 1274.496094 776.578125 1273.226562 785.15625 C 1271.953125 793.734375 1270.46875 802.273438 1268.777344 810.78125 C 1267.085938 819.285156 1265.1875 827.742188 1263.082031 836.15625 C 1260.972656 844.566406 1258.660156 852.921875 1256.144531 861.222656 C 1253.625 869.519531 1250.90625 877.75 1247.984375 885.917969 C 1245.0625 894.082031 1241.945312 902.171875 1238.625 910.183594 C 1235.308594 918.195312 1231.792969 926.121094 1228.085938 933.957031 C 1224.378906 941.796875 1220.480469 949.542969 1216.390625 957.191406 C 1212.304688 964.835938 1208.03125 972.378906 1203.574219 979.820312 C 1199.113281 987.257812 1194.476562 994.582031 1189.660156 1001.792969 C 1184.839844 1009 1179.847656 1016.089844 1174.683594 1023.054688 C 1169.519531 1030.019531 1164.183594 1036.855469 1158.683594 1043.558594 C 1153.179688 1050.261719 1147.519531 1056.828125 1141.695312 1063.25 C 1135.871094 1069.675781 1129.894531 1075.957031 1123.761719 1082.089844 C 1117.628906 1088.21875 1111.351562 1094.199219 1104.925781 1100.019531 C 1098.5 1105.84375 1091.9375 1111.507812 1085.230469 1117.007812 C 1078.527344 1122.511719 1071.695312 1127.84375 1064.730469 1133.011719 C 1057.761719 1138.175781 1050.675781 1143.167969 1043.464844 1147.984375 C 1036.253906 1152.804688 1028.929688 1157.441406 1021.492188 1161.898438 C 1014.054688 1166.359375 1006.511719 1170.632812 998.863281 1174.71875 C 991.214844 1178.808594 983.472656 1182.703125 975.632812 1186.414062 C 967.792969 1190.121094 959.867188 1193.632812 951.855469 1196.953125 C 943.84375 1200.269531 935.753906 1203.390625 927.589844 1206.3125 C 919.425781 1209.234375 911.195312 1211.953125 902.894531 1214.46875 C 894.597656 1216.988281 886.242188 1219.300781 877.828125 1221.40625 C 869.417969 1223.515625 860.957031 1225.414062 852.453125 1227.105469 C 843.949219 1228.796875 835.40625 1230.277344 826.828125 1231.550781 C 818.25 1232.824219 809.644531 1233.886719 801.015625 1234.734375 C 792.386719 1235.585938 783.742188 1236.222656 775.078125 1236.648438 C 766.417969 1237.074219 757.75 1237.285156 749.078125 1237.285156 C 740.40625 1237.285156 731.738281 1237.074219 723.078125 1236.648438 C 714.417969 1236.222656 705.769531 1235.585938 697.140625 1234.734375 C 688.511719 1233.886719 679.90625 1232.824219 671.328125 1231.550781 C 662.75 1230.277344 654.210938 1228.796875 645.703125 1227.105469 C 637.199219 1225.414062 628.738281 1223.515625 620.328125 1221.40625 C 611.914062 1219.300781 603.5625 1216.988281 595.261719 1214.46875 C 586.964844 1211.953125 578.730469 1209.234375 570.566406 1206.3125 C 562.402344 1203.390625 554.3125 1200.269531 546.300781 1196.953125 C 538.289062 1193.632812 530.363281 1190.121094 522.523438 1186.414062 C 514.6875 1182.703125 506.941406 1178.808594 499.292969 1174.71875 C 491.644531 1170.632812 484.101562 1166.359375 476.664062 1161.898438 C 469.226562 1157.441406 461.902344 1152.804688 454.691406 1147.984375 C 447.480469 1143.167969 440.394531 1138.175781 433.429688 1133.011719 C 426.464844 1127.84375 419.628906 1122.511719 412.925781 1117.007812 C 406.222656 1111.507812 399.65625 1105.84375 393.230469 1100.019531 C 386.804688 1094.199219 380.527344 1088.21875 374.394531 1082.089844 C 368.265625 1075.957031 362.285156 1069.675781 356.460938 1063.25 C 350.636719 1056.828125 344.976562 1050.261719 339.476562 1043.558594 C 333.972656 1036.855469 328.640625 1030.019531 323.472656 1023.054688 C 318.308594 1016.089844 313.316406 1009 308.5 1001.792969 C 303.679688 994.582031 299.042969 987.257812 294.585938 979.820312 C 290.125 972.378906 285.851562 964.835938 281.765625 957.1875 C 277.675781 949.542969 273.777344 941.796875 270.070312 933.957031 C 266.363281 926.121094 262.851562 918.195312 259.53125 910.183594 C 256.214844 902.171875 253.09375 894.082031 250.171875 885.917969 C 247.25 877.75 244.53125 869.519531 242.011719 861.222656 C 239.496094 852.921875 237.183594 844.566406 235.078125 836.15625 C 232.96875 827.742188 231.070312 819.285156 229.378906 810.78125 C 227.6875 802.273438 226.203125 793.734375 224.933594 785.15625 C 223.660156 776.578125 222.597656 767.972656 221.75 759.34375 C 220.898438 750.710938 220.261719 742.066406 219.835938 733.40625 C 219.410156 724.742188 219.195312 716.078125 219.195312 707.40625 C 219.195312 698.734375 219.410156 690.066406 219.835938 681.40625 C 220.261719 672.742188 220.898438 664.097656 221.75 655.46875 C 222.597656 646.835938 223.660156 638.234375 224.933594 629.65625 C 226.203125 621.078125 227.6875 612.535156 229.378906 604.03125 C 231.070312 595.523438 232.96875 587.066406 235.078125 578.65625 C 237.183594 570.242188 239.496094 561.886719 242.011719 553.589844 C 244.53125 545.289062 247.25 537.058594 250.171875 528.894531 C 253.09375 520.726562 256.214844 512.640625 259.53125 504.628906 C 262.851562 496.617188 266.363281 488.691406 270.070312 480.851562 C 273.777344 473.011719 277.675781 465.269531 281.765625 457.621094 C 285.851562 449.972656 290.125 442.429688 294.585938 434.992188 C 299.042969 427.554688 303.679688 420.230469 308.5 413.019531 C 313.316406 405.808594 318.308594 398.71875 323.472656 391.753906 C 328.640625 384.789062 333.972656 377.957031 339.476562 371.25 C 344.976562 364.546875 350.636719 357.984375 356.460938 351.558594 C 362.285156 345.132812 368.265625 338.855469 374.394531 332.722656 C 380.527344 326.589844 386.804688 320.613281 393.230469 314.789062 C 399.65625 308.964844 406.222656 303.300781 412.925781 297.800781 C 419.628906 292.300781 426.464844 286.964844 433.429688 281.800781 C 440.394531 276.632812 447.480469 271.640625 454.691406 266.824219 C 461.902344 262.007812 469.226562 257.367188 476.664062 252.910156 C 484.101562 248.453125 491.644531 244.179688 499.292969 240.089844 C 506.941406 236.003906 514.6875 232.105469 522.523438 228.398438 C 530.363281 224.691406 538.289062 221.175781 546.300781 217.859375 C 554.3125 214.539062 562.402344 211.417969 570.566406 208.5 C 578.730469 205.578125 586.964844 202.855469 595.261719 200.339844 C 603.5625 197.824219 611.914062 195.511719 620.328125 193.402344 C 628.738281 191.296875 637.199219 189.398438 645.703125 187.703125 C 654.210938 186.011719 662.75 184.53125 671.328125 183.257812 C 679.90625 181.984375 688.511719 180.925781 697.140625 180.074219 C 705.769531 179.226562 714.417969 178.585938 723.078125 178.160156 C 731.738281 177.734375 740.40625 177.523438 749.078125 177.523438 C 757.75 177.523438 766.417969 177.734375 775.078125 178.160156 C 783.742188 178.585938 792.386719 179.226562 801.015625 180.074219 C 809.644531 180.925781 818.25 181.984375 826.828125 183.257812 C 835.40625 184.53125 843.949219 186.011719 852.453125 187.703125 C 860.957031 189.398438 869.417969 191.296875 877.828125 193.402344 C 886.242188 195.511719 894.597656 197.824219 902.894531 200.339844 C 911.195312 202.855469 919.425781 205.578125 927.589844 208.5 C 935.753906 211.417969 943.84375 214.539062 951.855469 217.859375 C 959.867188 221.175781 967.792969 224.691406 975.632812 228.398438 C 983.472656 232.105469 991.214844 236.003906 998.863281 240.089844 C 1006.511719 244.179688 1014.054688 248.453125 1021.492188 252.910156 C 1028.929688 257.367188 1036.253906 262.007812 1043.464844 266.824219 C 1050.675781 271.640625 1057.761719 276.632812 1064.730469 281.800781 C 1071.695312 286.964844 1078.527344 292.300781 1085.230469 297.800781 C 1091.9375 303.300781 1098.5 308.964844 1104.925781 314.789062 C 1111.351562 320.613281 1117.628906 326.589844 1123.761719 332.722656 C 1129.894531 338.855469 1135.871094 345.132812 1141.695312 351.558594 C 1147.519531 357.984375 1153.179688 364.546875 1158.683594 371.25 C 1164.183594 377.957031 1169.519531 384.789062 1174.683594 391.753906 C 1179.847656 398.71875 1184.839844 405.808594 1189.660156 413.019531 C 1194.476562 420.230469 1199.113281 427.554688 1203.574219 434.992188 C 1208.03125 442.429688 1212.304688 449.972656 1216.390625 457.621094 C 1220.480469 465.269531 1224.378906 473.011719 1228.085938 480.851562 C 1231.792969 488.691406 1235.308594 496.617188 1238.625 504.628906 C 1241.945312 512.640625 1245.0625 520.726562 1247.984375 528.894531 C 1250.90625 537.058594 1253.625 545.289062 1256.144531 553.589844 C 1258.660156 561.886719 1260.972656 570.242188 1263.082031 578.652344 C 1265.1875 587.066406 1267.085938 595.523438 1268.777344 604.03125 C 1270.46875 612.535156 1271.953125 621.078125 1273.226562 629.65625 C 1274.496094 638.234375 1275.558594 646.835938 1276.410156 655.46875 C 1277.257812 664.097656 1277.898438 672.742188 1278.320312 681.40625 C 1278.746094 690.066406 1278.960938 698.734375 1278.960938 707.40625 Z M 1278.960938 707.40625 " fill-opacity="1" fill-rule="nonzero"/><g fill="#ffffff" fill-opacity="1"><g transform="translate(476.66512, 660.827491)"><g><path d="M 40.9375 -72.625 C 46.644531 -72.625 51.5625 -72.046875 55.6875 -70.890625 C 59.820312 -69.742188 63.203125 -68.648438 65.828125 -67.609375 C 67.140625 -67.078125 68.253906 -66.597656 69.171875 -66.171875 C 70.097656 -65.742188 70.753906 -65.53125 71.140625 -65.53125 C 71.609375 -65.53125 72.332031 -65.925781 73.3125 -66.71875 L 74.5 -66.328125 L 68.390625 -53.53125 L 67.109375 -54.125 C 67.109375 -54.25 67.125 -54.410156 67.15625 -54.609375 C 67.195312 -54.804688 67.21875 -55.035156 67.21875 -55.296875 C 67.21875 -55.953125 66.492188 -56.804688 65.046875 -57.859375 C 63.597656 -58.910156 61.628906 -59.910156 59.140625 -60.859375 C 56.648438 -61.816406 53.679688 -62.640625 50.234375 -63.328125 C 46.785156 -64.015625 43.0625 -64.359375 39.0625 -64.359375 C 35.914062 -64.359375 33.03125 -64.0625 30.40625 -63.46875 C 27.78125 -62.882812 25.515625 -62.015625 23.609375 -60.859375 C 21.710938 -59.710938 20.238281 -58.351562 19.1875 -56.78125 C 18.132812 -55.207031 17.609375 -53.4375 17.609375 -51.46875 C 17.609375 -49.238281 18.28125 -47.484375 19.625 -46.203125 C 20.976562 -44.921875 22.832031 -43.921875 25.1875 -43.203125 C 27.550781 -42.484375 30.375 -41.957031 33.65625 -41.625 C 36.9375 -41.300781 40.546875 -41.003906 44.484375 -40.734375 C 48.609375 -40.410156 52.554688 -39.96875 56.328125 -39.40625 C 60.109375 -38.851562 63.441406 -37.90625 66.328125 -36.5625 C 69.210938 -35.21875 71.523438 -33.363281 73.265625 -31 C 75.003906 -28.632812 75.875 -25.484375 75.875 -21.546875 C 75.875 -18.003906 75.050781 -14.835938 73.40625 -12.046875 C 71.769531 -9.265625 69.472656 -6.90625 66.515625 -4.96875 C 63.566406 -3.03125 60.039062 -1.550781 55.9375 -0.53125 C 51.84375 0.476562 47.300781 0.984375 42.3125 0.984375 C 35.6875 0.984375 30.0625 0.328125 25.4375 -0.984375 C 20.8125 -2.296875 17.023438 -3.707031 14.078125 -5.21875 C 12.890625 -5.800781 11.769531 -6.40625 10.71875 -7.03125 C 9.675781 -7.65625 8.890625 -7.96875 8.359375 -7.96875 C 8.035156 -7.96875 7.707031 -7.882812 7.375 -7.71875 C 7.050781 -7.5625 6.660156 -7.15625 6.203125 -6.5 L 4.921875 -7.078125 L 12.109375 -21.0625 L 13.28125 -20.375 C 13.15625 -19.976562 13.054688 -19.648438 12.984375 -19.390625 C 12.921875 -19.128906 12.890625 -18.863281 12.890625 -18.59375 C 12.890625 -17.550781 13.742188 -16.375 15.453125 -15.0625 C 17.160156 -13.75 19.40625 -12.515625 22.1875 -11.359375 C 24.976562 -10.210938 28.160156 -9.242188 31.734375 -8.453125 C 35.304688 -7.671875 39 -7.28125 42.8125 -7.28125 C 50.351562 -7.28125 56.269531 -8.507812 60.5625 -10.96875 C 64.863281 -13.425781 67.015625 -16.753906 67.015625 -20.953125 C 67.015625 -23.515625 66.144531 -25.46875 64.40625 -26.8125 C 62.664062 -28.15625 60.414062 -29.15625 57.65625 -29.8125 C 54.90625 -30.46875 51.789062 -30.894531 48.3125 -31.09375 C 44.84375 -31.289062 41.367188 -31.519531 37.890625 -31.78125 C 34.015625 -32.039062 30.320312 -32.484375 26.8125 -33.109375 C 23.300781 -33.734375 20.203125 -34.75 17.515625 -36.15625 C 14.828125 -37.570312 12.695312 -39.476562 11.125 -41.875 C 9.550781 -44.269531 8.765625 -47.398438 8.765625 -51.265625 C 8.765625 -54.421875 9.566406 -57.289062 11.171875 -59.875 C 12.773438 -62.46875 15.019531 -64.710938 17.90625 -66.609375 C 20.789062 -68.515625 24.1875 -69.992188 28.09375 -71.046875 C 32 -72.097656 36.28125 -72.625 40.9375 -72.625 Z M 40.9375 -72.625 "/></g></g></g><g fill="#ffffff" fill-opacity="1"><g transform="translate(558.62447, 660.827491)"><g><path d="M 2.953125 -62.390625 L 4.140625 -62.390625 C 4.328125 -61.398438 4.648438 -60.757812 5.109375 -60.46875 C 5.578125 -60.175781 6.171875 -60.03125 6.890625 -60.03125 L 58.65625 -60.03125 C 59.375 -60.03125 59.960938 -60.175781 60.421875 -60.46875 C 60.878906 -60.757812 61.207031 -61.398438 61.40625 -62.390625 L 62.59375 -62.390625 L 62.59375 -50.390625 L 61.40625 -50.390625 C 61.207031 -51.367188 60.878906 -52.003906 60.421875 -52.296875 C 59.960938 -52.597656 59.375 -52.75 58.65625 -52.75 L 36.90625 -52.75 L 36.90625 -3.640625 C 36.90625 -2.722656 37.050781 -2.082031 37.34375 -1.71875 C 37.632812 -1.363281 38.40625 -1.1875 39.65625 -1.1875 L 39.65625 0 L 25.875 0 L 25.875 -1.1875 C 27.125 -1.1875 27.894531 -1.363281 28.1875 -1.71875 C 28.488281 -2.082031 28.640625 -2.722656 28.640625 -3.640625 L 28.640625 -52.75 L 6.890625 -52.75 C 6.171875 -52.75 5.578125 -52.597656 5.109375 -52.296875 C 4.648438 -52.003906 4.328125 -51.367188 4.140625 -50.390625 L 2.953125 -50.390625 Z M 2.953125 -62.390625 "/></g></g></g><g fill="#ffffff" fill-opacity="1"><g transform="translate(624.250987, 660.827491)"><g><path d="M 20.078125 -23.421875 L 43.984375 -23.421875 L 31.78125 -51.5625 Z M 40.34375 -60.03125 L 40.34375 -58.84375 C 38.632812 -58.71875 37.78125 -58.328125 37.78125 -57.671875 C 37.78125 -57.140625 38.046875 -56.316406 38.578125 -55.203125 L 61.203125 -3.25 C 61.597656 -2.332031 61.941406 -1.773438 62.234375 -1.578125 C 62.535156 -1.378906 63.242188 -1.25 64.359375 -1.1875 L 64.359375 0 L 50.390625 0 L 50.390625 -1.1875 C 51.304688 -1.1875 51.910156 -1.316406 52.203125 -1.578125 C 52.492188 -1.835938 52.640625 -2.128906 52.640625 -2.453125 C 52.640625 -2.921875 52.410156 -3.644531 51.953125 -4.625 L 46.84375 -16.140625 L 17.3125 -16.140625 C 16.070312 -13.054688 15.039062 -10.546875 14.21875 -8.609375 C 13.394531 -6.671875 12.851562 -5.441406 12.59375 -4.921875 C 12.070312 -3.742188 11.8125 -2.921875 11.8125 -2.453125 C 11.8125 -2.066406 11.957031 -1.773438 12.25 -1.578125 C 12.539062 -1.378906 13.25 -1.25 14.375 -1.1875 L 14.375 0 L 1.1875 0 L 1.1875 -1.1875 C 1.96875 -1.1875 2.601562 -1.347656 3.09375 -1.671875 C 3.59375 -2.003906 4.003906 -2.59375 4.328125 -3.4375 L 26.078125 -55.703125 C 26.398438 -56.484375 26.5625 -57.070312 26.5625 -57.46875 C 26.5625 -57.863281 26.363281 -58.175781 25.96875 -58.40625 C 25.582031 -58.632812 24.863281 -58.78125 23.8125 -58.84375 L 23.8125 -60.03125 Z M 40.34375 -60.03125 "/></g></g></g><g fill="#ffffff" fill-opacity="1"><g transform="translate(689.877503, 660.827491)"><g><path d="M 49 -33.265625 C 50.382812 -33.265625 51.710938 -33.457031 52.984375 -33.84375 C 54.265625 -34.238281 55.394531 -34.847656 56.375 -35.671875 C 57.363281 -36.492188 58.15625 -37.507812 58.75 -38.71875 C 59.34375 -39.9375 59.640625 -41.363281 59.640625 -43 C 59.640625 -44.570312 59.34375 -45.960938 58.75 -47.171875 C 58.15625 -48.390625 57.1875 -49.410156 55.84375 -50.234375 C 54.5 -51.054688 52.742188 -51.679688 50.578125 -52.109375 C 48.410156 -52.535156 45.722656 -52.75 42.515625 -52.75 L 19.6875 -52.75 L 19.6875 -33.265625 Z M 46.546875 -60.03125 C 53.234375 -60.03125 58.460938 -58.617188 62.234375 -55.796875 C 66.015625 -52.972656 67.90625 -48.835938 67.90625 -43.390625 C 67.90625 -38.472656 66.394531 -34.519531 63.375 -31.53125 C 60.351562 -28.550781 56.21875 -26.894531 50.96875 -26.5625 L 65.34375 -3.640625 C 65.800781 -2.921875 66.320312 -2.332031 66.90625 -1.875 C 67.5 -1.414062 68.679688 -1.1875 70.453125 -1.1875 L 70.453125 0 L 54.125 0 L 54.125 -1.1875 C 55.101562 -1.25 55.773438 -1.378906 56.140625 -1.578125 C 56.503906 -1.773438 56.6875 -2.132812 56.6875 -2.65625 C 56.6875 -2.914062 56.601562 -3.191406 56.4375 -3.484375 C 56.269531 -3.785156 55.925781 -4.363281 55.40625 -5.21875 L 42.015625 -25.984375 L 19.6875 -25.984375 L 19.6875 -3.546875 C 19.6875 -2.628906 19.863281 -2.003906 20.21875 -1.671875 C 20.582031 -1.347656 21.453125 -1.1875 22.828125 -1.1875 L 22.828125 0 L 8.265625 0 L 8.265625 -1.1875 C 9.640625 -1.1875 10.507812 -1.347656 10.875 -1.671875 C 11.238281 -2.003906 11.421875 -2.59375 11.421875 -3.4375 L 11.421875 -56.484375 C 11.421875 -57.398438 11.238281 -58.019531 10.875 -58.34375 C 10.507812 -58.675781 9.640625 -58.84375 8.265625 -58.84375 L 8.265625 -60.03125 Z M 46.546875 -60.03125 "/></g></g></g><g fill="#ffffff" fill-opacity="1"><g transform="translate(766.425378, 660.827491)"><g><path d="M 2.953125 -62.390625 L 4.140625 -62.390625 C 4.328125 -61.398438 4.648438 -60.757812 5.109375 -60.46875 C 5.578125 -60.175781 6.171875 -60.03125 6.890625 -60.03125 L 58.65625 -60.03125 C 59.375 -60.03125 59.960938 -60.175781 60.421875 -60.46875 C 60.878906 -60.757812 61.207031 -61.398438 61.40625 -62.390625 L 62.59375 -62.390625 L 62.59375 -50.390625 L 61.40625 -50.390625 C 61.207031 -51.367188 60.878906 -52.003906 60.421875 -52.296875 C 59.960938 -52.597656 59.375 -52.75 58.65625 -52.75 L 36.90625 -52.75 L 36.90625 -3.640625 C 36.90625 -2.722656 37.050781 -2.082031 37.34375 -1.71875 C 37.632812 -1.363281 38.40625 -1.1875 39.65625 -1.1875 L 39.65625 0 L 25.875 0 L 25.875 -1.1875 C 27.125 -1.1875 27.894531 -1.363281 28.1875 -1.71875 C 28.488281 -2.082031 28.640625 -2.722656 28.640625 -3.640625 L 28.640625 -52.75 L 6.890625 -52.75 C 6.171875 -52.75 5.578125 -52.597656 5.109375 -52.296875 C 4.648438 -52.003906 4.328125 -51.367188 4.140625 -50.390625 L 2.953125 -50.390625 Z M 2.953125 -62.390625 "/></g></g></g><g fill="#ffffff" fill-opacity="1"><g transform="translate(832.051883, 660.827491)"><g><path d="M 23.21875 -60.03125 L 23.21875 -58.84375 C 22.039062 -58.84375 21.285156 -58.675781 20.953125 -58.34375 C 20.628906 -58.019531 20.46875 -57.429688 20.46875 -56.578125 L 20.46875 -3.546875 C 20.46875 -2.628906 20.628906 -2.003906 20.953125 -1.671875 C 21.285156 -1.347656 22.039062 -1.1875 23.21875 -1.1875 L 23.21875 0 L 9.453125 0 L 9.453125 -1.1875 C 10.628906 -1.1875 11.378906 -1.347656 11.703125 -1.671875 C 12.035156 -2.003906 12.203125 -2.628906 12.203125 -3.546875 L 12.203125 -56.578125 C 12.203125 -57.429688 12.035156 -58.019531 11.703125 -58.34375 C 11.378906 -58.675781 10.628906 -58.84375 9.453125 -58.84375 L 9.453125 -60.03125 Z M 23.21875 -60.03125 "/></g></g></g><g fill="#ffffff" fill-opacity="1"><g transform="translate(864.815949, 660.827491)"><g><path d="M 25.984375 -60.03125 L 25.984375 -58.84375 C 25.253906 -58.78125 24.773438 -58.664062 24.546875 -58.5 C 24.316406 -58.332031 24.203125 -58.117188 24.203125 -57.859375 C 24.203125 -57.535156 24.53125 -56.960938 25.1875 -56.140625 C 25.84375 -55.316406 27.15625 -53.726562 29.125 -51.375 L 48.3125 -28.640625 L 62 -12.203125 L 62.1875 -12.203125 L 62.1875 -56.484375 C 62.1875 -57.398438 62.019531 -58.019531 61.6875 -58.34375 C 61.363281 -58.675781 60.679688 -58.84375 59.640625 -58.84375 L 59.640625 -60.03125 L 72.234375 -60.03125 L 72.234375 -58.84375 C 71.179688 -58.84375 70.488281 -58.675781 70.15625 -58.34375 C 69.832031 -58.019531 69.671875 -57.398438 69.671875 -56.484375 L 69.671875 -3.4375 C 69.671875 -2.519531 69.832031 -1.914062 70.15625 -1.625 C 70.488281 -1.332031 71.179688 -1.1875 72.234375 -1.1875 L 72.234375 0 L 58.0625 0 L 58.0625 -1.1875 C 59.113281 -1.25 59.769531 -1.359375 60.03125 -1.515625 C 60.289062 -1.679688 60.421875 -1.898438 60.421875 -2.171875 C 60.421875 -2.359375 60.320312 -2.582031 60.125 -2.84375 C 59.925781 -3.113281 59.597656 -3.507812 59.140625 -4.03125 L 45.765625 -19.875 L 19.6875 -51.171875 L 19.484375 -51.171875 L 19.484375 -3.640625 C 19.484375 -2.660156 19.628906 -2.003906 19.921875 -1.671875 C 20.222656 -1.347656 20.863281 -1.1875 21.84375 -1.1875 L 21.84375 0 L 9.640625 0 L 9.640625 -1.1875 C 10.628906 -1.1875 11.269531 -1.347656 11.5625 -1.671875 C 11.851562 -2.003906 12 -2.660156 12 -3.640625 L 12 -56.578125 C 12 -57.429688 11.851562 -58.019531 11.5625 -58.34375 C 11.269531 -58.675781 10.628906 -58.84375 9.640625 -58.84375 L 9.640625 -60.03125 Z M 25.984375 -60.03125 "/></g></g></g><g fill="#ffffff" fill-opacity="1"><g transform="translate(946.775278, 660.827491)"><g><path d="M 39.0625 -61.015625 C 43 -61.015625 46.785156 -60.519531 50.421875 -59.53125 C 54.066406 -58.550781 57.796875 -57.140625 61.609375 -55.296875 C 62.722656 -54.773438 63.640625 -54.347656 64.359375 -54.015625 C 65.078125 -53.691406 65.601562 -53.53125 65.9375 -53.53125 C 66.457031 -53.53125 66.894531 -53.675781 67.25 -53.96875 C 67.613281 -54.269531 67.929688 -54.519531 68.203125 -54.71875 L 69.171875 -54.21875 L 62.1875 -43.109375 L 61.203125 -43.6875 C 61.335938 -44.082031 61.4375 -44.425781 61.5 -44.71875 C 61.570312 -45.019531 61.609375 -45.367188 61.609375 -45.765625 C 61.609375 -46.222656 60.984375 -46.894531 59.734375 -47.78125 C 58.484375 -48.664062 56.820312 -49.550781 54.75 -50.4375 C 52.6875 -51.320312 50.257812 -52.09375 47.46875 -52.75 C 44.6875 -53.40625 41.785156 -53.734375 38.765625 -53.734375 C 34.898438 -53.734375 31.375 -53.175781 28.1875 -52.0625 C 25.007812 -50.945312 22.285156 -49.320312 20.015625 -47.1875 C 17.753906 -45.050781 15.984375 -42.488281 14.703125 -39.5 C 13.429688 -36.519531 12.796875 -33.160156 12.796875 -29.421875 C 12.796875 -25.617188 13.53125 -22.273438 15 -19.390625 C 16.476562 -16.503906 18.460938 -14.09375 20.953125 -12.15625 C 23.453125 -10.21875 26.34375 -8.753906 29.625 -7.765625 C 32.90625 -6.785156 36.378906 -6.296875 40.046875 -6.296875 C 41.492188 -6.296875 43.101562 -6.457031 44.875 -6.78125 C 46.644531 -7.113281 48.414062 -7.570312 50.1875 -8.15625 C 51.957031 -8.75 53.695312 -9.457031 55.40625 -10.28125 C 57.113281 -11.101562 58.65625 -12.003906 60.03125 -12.984375 L 60.03125 -22.4375 L 46.15625 -22.4375 C 45.425781 -22.4375 44.816406 -22.304688 44.328125 -22.046875 C 43.835938 -21.785156 43.492188 -21.128906 43.296875 -20.078125 L 42.125 -20.078125 L 42.125 -32.078125 L 43.296875 -32.078125 C 43.492188 -31.097656 43.820312 -30.457031 44.28125 -30.15625 C 44.738281 -29.863281 45.328125 -29.71875 46.046875 -29.71875 L 69.671875 -29.71875 L 69.671875 -28.53125 C 68.753906 -28.46875 68.296875 -27.976562 68.296875 -27.0625 L 68.296875 -14.5625 C 68.296875 -13.3125 68.785156 -12.59375 69.765625 -12.40625 L 69.765625 -10.625 C 64.054688 -6.101562 58.707031 -3.035156 53.71875 -1.421875 C 48.738281 0.179688 43.890625 0.984375 39.171875 0.984375 C 34.578125 0.984375 30.195312 0.296875 26.03125 -1.078125 C 21.863281 -2.460938 18.1875 -4.445312 15 -7.03125 C 11.820312 -9.625 9.28125 -12.789062 7.375 -16.53125 C 5.476562 -20.269531 4.53125 -24.535156 4.53125 -29.328125 C 4.53125 -34.242188 5.378906 -38.671875 7.078125 -42.609375 C 8.785156 -46.546875 11.179688 -49.875 14.265625 -52.59375 C 17.347656 -55.320312 20.988281 -57.40625 25.1875 -58.84375 C 29.382812 -60.289062 34.007812 -61.015625 39.0625 -61.015625 Z M 39.0625 -61.015625 "/></g></g></g><g fill="#ffffff" fill-opacity="1"><g transform="translate(550.411207, 798.077479)"><g><path d="M 20.078125 -23.421875 L 43.984375 -23.421875 L 31.78125 -51.5625 Z M 40.34375 -60.03125 L 40.34375 -58.84375 C 38.632812 -58.71875 37.78125 -58.328125 37.78125 -57.671875 C 37.78125 -57.140625 38.046875 -56.316406 38.578125 -55.203125 L 61.203125 -3.25 C 61.597656 -2.332031 61.941406 -1.773438 62.234375 -1.578125 C 62.535156 -1.378906 63.242188 -1.25 64.359375 -1.1875 L 64.359375 0 L 50.390625 0 L 50.390625 -1.1875 C 51.304688 -1.1875 51.910156 -1.316406 52.203125 -1.578125 C 52.492188 -1.835938 52.640625 -2.128906 52.640625 -2.453125 C 52.640625 -2.921875 52.410156 -3.644531 51.953125 -4.625 L 46.84375 -16.140625 L 17.3125 -16.140625 C 16.070312 -13.054688 15.039062 -10.546875 14.21875 -8.609375 C 13.394531 -6.671875 12.851562 -5.441406 12.59375 -4.921875 C 12.070312 -3.742188 11.8125 -2.921875 11.8125 -2.453125 C 11.8125 -2.066406 11.957031 -1.773438 12.25 -1.578125 C 12.539062 -1.378906 13.25 -1.25 14.375 -1.1875 L 14.375 0 L 1.1875 0 L 1.1875 -1.1875 C 1.96875 -1.1875 2.601562 -1.347656 3.09375 -1.671875 C 3.59375 -2.003906 4.003906 -2.59375 4.328125 -3.4375 L 26.078125 -55.703125 C 26.398438 -56.484375 26.5625 -57.070312 26.5625 -57.46875 C 26.5625 -57.863281 26.363281 -58.175781 25.96875 -58.40625 C 25.582031 -58.632812 24.863281 -58.78125 23.8125 -58.84375 L 23.8125 -60.03125 Z M 40.34375 -60.03125 "/></g></g></g><g fill="#ffffff" fill-opacity="1"><g transform="translate(616.037723, 798.077479)"><g><path d="M 2.953125 -62.390625 L 4.140625 -62.390625 C 4.328125 -61.398438 4.648438 -60.757812 5.109375 -60.46875 C 5.578125 -60.175781 6.171875 -60.03125 6.890625 -60.03125 L 58.65625 -60.03125 C 59.375 -60.03125 59.960938 -60.175781 60.421875 -60.46875 C 60.878906 -60.757812 61.207031 -61.398438 61.40625 -62.390625 L 62.59375 -62.390625 L 62.59375 -50.390625 L 61.40625 -50.390625 C 61.207031 -51.367188 60.878906 -52.003906 60.421875 -52.296875 C 59.960938 -52.597656 59.375 -52.75 58.65625 -52.75 L 36.90625 -52.75 L 36.90625 -3.640625 C 36.90625 -2.722656 37.050781 -2.082031 37.34375 -1.71875 C 37.632812 -1.363281 38.40625 -1.1875 39.65625 -1.1875 L 39.65625 0 L 25.875 0 L 25.875 -1.1875 C 27.125 -1.1875 27.894531 -1.363281 28.1875 -1.71875 C 28.488281 -2.082031 28.640625 -2.722656 28.640625 -3.640625 L 28.640625 -52.75 L 6.890625 -52.75 C 6.171875 -52.75 5.578125 -52.597656 5.109375 -52.296875 C 4.648438 -52.003906 4.328125 -51.367188 4.140625 -50.390625 L 2.953125 -50.390625 Z M 2.953125 -62.390625 "/></g></g></g><g fill="#ffffff" fill-opacity="1"><g transform="translate(681.664239, 798.077479)"><g/></g></g><g fill="#ffffff" fill-opacity="1"><g transform="translate(719.938177, 798.077479)"><g><path d="M 42.703125 -7.28125 C 45.328125 -7.34375 47.753906 -7.6875 49.984375 -8.3125 C 52.222656 -8.9375 54.144531 -9.789062 55.75 -10.875 C 57.351562 -11.957031 58.597656 -13.234375 59.484375 -14.703125 C 60.367188 -16.179688 60.8125 -17.804688 60.8125 -19.578125 C 60.8125 -22.929688 59.332031 -25.34375 56.375 -26.8125 C 53.425781 -28.289062 48.867188 -29.390625 42.703125 -30.109375 Z M 17.90625 -50.78125 C 17.90625 -47.820312 19.492188 -45.503906 22.671875 -43.828125 C 25.859375 -42.160156 30.4375 -41.066406 36.40625 -40.546875 L 36.40625 -63.375 C 30.3125 -62.851562 25.703125 -61.507812 22.578125 -59.34375 C 19.460938 -57.175781 17.90625 -54.320312 17.90625 -50.78125 Z M 42.703125 -77.734375 L 42.703125 -71.640625 C 47.429688 -71.640625 51.597656 -71.082031 55.203125 -69.96875 C 58.816406 -68.851562 61.769531 -67.769531 64.0625 -66.71875 C 64.78125 -66.394531 65.5 -66.050781 66.21875 -65.6875 C 66.945312 -65.320312 67.472656 -65.140625 67.796875 -65.140625 C 68.390625 -65.140625 69.082031 -65.664062 69.875 -66.71875 L 71.046875 -65.9375 L 64.953125 -51.953125 L 63.578125 -52.75 C 63.703125 -52.875 63.828125 -53.132812 63.953125 -53.53125 C 64.085938 -53.925781 64.15625 -54.285156 64.15625 -54.609375 C 64.15625 -55.460938 63.484375 -56.378906 62.140625 -57.359375 C 60.796875 -58.347656 59.085938 -59.253906 57.015625 -60.078125 C 54.953125 -60.898438 52.640625 -61.617188 50.078125 -62.234375 C 47.523438 -62.859375 45.066406 -63.238281 42.703125 -63.375 L 42.703125 -40.15625 C 52.410156 -39.039062 59.53125 -36.890625 64.0625 -33.703125 C 68.59375 -30.523438 70.859375 -25.984375 70.859375 -20.078125 C 70.859375 -16.660156 70.035156 -13.640625 68.390625 -11.015625 C 66.753906 -8.390625 64.640625 -6.191406 62.046875 -4.421875 C 59.453125 -2.648438 56.53125 -1.304688 53.28125 -0.390625 C 50.039062 0.523438 46.8125 0.984375 43.59375 0.984375 L 42.703125 0.984375 L 42.703125 12.296875 L 36.40625 12.296875 L 36.40625 0.984375 C 32.207031 0.984375 28.207031 0.539062 24.40625 -0.34375 C 20.601562 -1.226562 16.832031 -2.6875 13.09375 -4.71875 C 11.1875 -5.769531 9.96875 -6.410156 9.4375 -6.640625 C 8.914062 -6.867188 8.492188 -6.984375 8.171875 -6.984375 C 7.441406 -6.984375 6.945312 -6.625 6.6875 -5.90625 L 5.515625 -6.5 L 11.90625 -19.875 L 12.890625 -19.09375 C 12.691406 -18.757812 12.578125 -18.523438 12.546875 -18.390625 C 12.515625 -18.265625 12.5 -18.140625 12.5 -18.015625 C 12.5 -17.160156 13.875 -15.75 16.625 -13.78125 C 19.445312 -11.738281 22.613281 -10.144531 26.125 -9 C 29.632812 -7.851562 33.0625 -7.28125 36.40625 -7.28125 L 36.40625 -30.703125 C 27.488281 -31.359375 20.601562 -33.441406 15.75 -36.953125 C 10.894531 -40.460938 8.46875 -45.003906 8.46875 -50.578125 C 8.46875 -53.859375 9.253906 -56.8125 10.828125 -59.4375 C 12.398438 -62.0625 14.476562 -64.273438 17.0625 -66.078125 C 19.65625 -67.878906 22.625 -69.253906 25.96875 -70.203125 C 29.320312 -71.160156 32.800781 -71.640625 36.40625 -71.640625 L 36.40625 -77.734375 Z M 42.703125 -77.734375 "/></g></g></g><g fill="#ffffff" fill-opacity="1"><g transform="translate(796.486029, 798.077479)"><g><path d="M 41.03125 -72.625 C 44.445312 -72.625 47.660156 -72.113281 50.671875 -71.09375 C 53.691406 -70.082031 56.332031 -68.671875 58.59375 -66.859375 C 60.863281 -65.054688 62.65625 -62.875 63.96875 -60.3125 C 65.28125 -57.757812 65.9375 -54.972656 65.9375 -51.953125 C 65.9375 -48.804688 65.394531 -46.019531 64.3125 -43.59375 C 63.226562 -41.164062 61.632812 -38.914062 59.53125 -36.84375 C 57.4375 -34.78125 54.863281 -32.878906 51.8125 -31.140625 C 48.757812 -29.398438 45.265625 -27.644531 41.328125 -25.875 C 37.460938 -24.175781 34.21875 -22.585938 31.59375 -21.109375 C 28.96875 -19.628906 26.800781 -18.21875 25.09375 -16.875 C 23.382812 -15.53125 22.054688 -14.1875 21.109375 -12.84375 C 20.160156 -11.5 19.421875 -10.101562 18.890625 -8.65625 L 65.53125 -8.65625 C 66.457031 -8.65625 67.132812 -8.816406 67.5625 -9.140625 C 67.988281 -9.472656 68.296875 -10.265625 68.484375 -11.515625 L 69.671875 -11.515625 L 69.671875 2.171875 L 68.484375 2.171875 C 68.296875 1.242188 67.96875 0.648438 67.5 0.390625 C 67.039062 0.128906 66.351562 0 65.4375 0 L 6.890625 0 C 7.285156 -5.445312 8.957031 -10.300781 11.90625 -14.5625 C 14.46875 -18.238281 17.710938 -21.4375 21.640625 -24.15625 C 25.578125 -26.882812 30.398438 -29.691406 36.109375 -32.578125 C 39.265625 -34.148438 42.070312 -35.671875 44.53125 -37.140625 C 46.988281 -38.617188 49.050781 -40.113281 50.71875 -41.625 C 52.394531 -43.132812 53.675781 -44.722656 54.5625 -46.390625 C 55.445312 -48.066406 55.890625 -49.921875 55.890625 -51.953125 C 55.890625 -53.859375 55.492188 -55.566406 54.703125 -57.078125 C 53.921875 -58.585938 52.820312 -59.882812 51.40625 -60.96875 C 50 -62.050781 48.328125 -62.882812 46.390625 -63.46875 C 44.460938 -64.0625 42.347656 -64.359375 40.046875 -64.359375 C 37.222656 -64.359375 34.429688 -63.816406 31.671875 -62.734375 C 28.921875 -61.648438 26.460938 -60.367188 24.296875 -58.890625 C 22.140625 -57.421875 20.40625 -55.894531 19.09375 -54.3125 C 17.78125 -52.738281 17.125 -51.460938 17.125 -50.484375 C 17.125 -50.222656 17.171875 -49.941406 17.265625 -49.640625 C 17.367188 -49.347656 17.519531 -49.132812 17.71875 -49 L 16.53125 -48.421875 L 8.46875 -58.65625 L 9.640625 -59.828125 C 9.898438 -59.429688 10.296875 -59.234375 10.828125 -59.234375 C 11.347656 -59.234375 12.050781 -59.628906 12.9375 -60.421875 C 13.820312 -61.210938 14.660156 -61.96875 15.453125 -62.6875 C 16.691406 -63.800781 18.113281 -64.945312 19.71875 -66.125 C 21.332031 -67.3125 23.171875 -68.378906 25.234375 -69.328125 C 27.304688 -70.273438 29.632812 -71.0625 32.21875 -71.6875 C 34.8125 -72.3125 37.75 -72.625 41.03125 -72.625 Z M 41.03125 -72.625 "/></g></g></g><g fill="#ffffff" fill-opacity="1"><g transform="translate(873.033905, 798.077479)"><g><path d="M 66.71875 -59.828125 L 65.53125 -59.828125 C 65.34375 -61.015625 65.035156 -61.769531 64.609375 -62.09375 C 64.179688 -62.425781 63.507812 -62.59375 62.59375 -62.59375 L 20.671875 -62.59375 L 20.671875 -44.375 C 24.273438 -46.21875 27.796875 -47.515625 31.234375 -48.265625 C 34.679688 -49.023438 38.472656 -49.40625 42.609375 -49.40625 C 46.546875 -49.40625 50.234375 -48.863281 53.671875 -47.78125 C 57.117188 -46.695312 60.117188 -45.085938 62.671875 -42.953125 C 65.234375 -40.816406 67.238281 -38.222656 68.6875 -35.171875 C 70.132812 -32.128906 70.859375 -28.640625 70.859375 -24.703125 C 70.859375 -20.304688 69.96875 -16.5 68.1875 -13.28125 C 66.414062 -10.070312 64.054688 -7.398438 61.109375 -5.265625 C 58.160156 -3.128906 54.75 -1.550781 50.875 -0.53125 C 47 0.476562 43 0.984375 38.875 0.984375 C 34.675781 0.984375 30.609375 0.457031 26.671875 -0.59375 C 22.734375 -1.644531 18.726562 -3.445312 14.65625 -6 C 13.34375 -6.789062 12.273438 -7.429688 11.453125 -7.921875 C 10.640625 -8.410156 9.972656 -8.65625 9.453125 -8.65625 C 8.921875 -8.65625 8.457031 -8.507812 8.0625 -8.21875 C 7.675781 -7.925781 7.285156 -7.613281 6.890625 -7.28125 L 5.703125 -8.265625 L 14.375 -20.46875 L 15.546875 -19.484375 C 15.410156 -19.160156 15.3125 -18.878906 15.25 -18.640625 C 15.1875 -18.410156 15.15625 -18.132812 15.15625 -17.8125 C 15.15625 -17.019531 15.773438 -16.035156 17.015625 -14.859375 C 18.265625 -13.679688 19.9375 -12.535156 22.03125 -11.421875 C 24.132812 -10.304688 26.597656 -9.335938 29.421875 -8.515625 C 32.242188 -7.691406 35.195312 -7.28125 38.28125 -7.28125 C 41.101562 -7.28125 43.859375 -7.640625 46.546875 -8.359375 C 49.234375 -9.085938 51.644531 -10.171875 53.78125 -11.609375 C 55.914062 -13.054688 57.617188 -14.894531 58.890625 -17.125 C 60.171875 -19.351562 60.8125 -22.007812 60.8125 -25.09375 C 60.8125 -27.519531 60.351562 -29.71875 59.4375 -31.6875 C 58.519531 -33.65625 57.238281 -35.34375 55.59375 -36.75 C 53.957031 -38.164062 52.023438 -39.25 49.796875 -40 C 47.566406 -40.757812 45.140625 -41.140625 42.515625 -41.140625 C 40.472656 -41.140625 38.632812 -41.039062 37 -40.84375 C 35.363281 -40.644531 33.691406 -40.347656 31.984375 -39.953125 C 28.960938 -39.234375 26.414062 -38.21875 24.34375 -36.90625 C 22.28125 -35.59375 21.25 -34.378906 21.25 -33.265625 C 21.25 -33.066406 21.296875 -32.867188 21.390625 -32.671875 C 21.492188 -32.472656 21.582031 -32.304688 21.65625 -32.171875 L 20.671875 -31.296875 L 7.671875 -42.703125 L 8.65625 -43.5 C 8.851562 -43.363281 9.050781 -43.210938 9.25 -43.046875 C 9.445312 -42.890625 9.675781 -42.8125 9.9375 -42.8125 C 10.269531 -42.8125 10.53125 -42.957031 10.71875 -43.25 C 10.914062 -43.539062 11.015625 -43.882812 11.015625 -44.28125 L 11.015625 -68 C 11.015625 -68.976562 10.847656 -69.628906 10.515625 -69.953125 C 10.191406 -70.285156 9.441406 -70.453125 8.265625 -70.453125 L 8.265625 -71.640625 L 62.59375 -71.640625 C 63.507812 -71.640625 64.179688 -71.816406 64.609375 -72.171875 C 65.035156 -72.535156 65.34375 -73.273438 65.53125 -74.390625 L 66.71875 -74.390625 Z M 66.71875 -59.828125 "/></g></g></g></svg>